<?xml version="1.0" encoding="utf-8"?>
<!-- Generator: Adobe Illustrator 19.0.0, SVG Export Plug-In . SVG Version: 6.00 Build 0)  -->
<svg version="1.1" id="Layer_1" xmlns="http://www.w3.org/2000/svg" xmlns:xlink="http://www.w3.org/1999/xlink" x="0px" y="0px"
	 viewBox="0 0 249.7 249.2" style="enable-background:new 0 0 249.7 249.2;" xml:space="preserve">
<style type="text/css">
	.st0{fill:#434244;}
	.st1{fill:#94D50C;}
	.st2{fill:#4F5B31;}
	.st3{fill:#6CA438;}
	.st4{fill:#6EA53A;}
	.st5{fill:#4E5B31;}
	.st6{fill:#95D60D;}
	.st7{fill:#505D33;}
	.st8{fill:#6DA439;}
	.st9{fill:#535F36;}
	.st10{fill:#95D60F;}
</style>
<g>
	<path class="st0" d="M249.7,28.4c0.1,23.5-20,38.3-40,31.6c-3.3-1.1-5-0.6-7.3,1.8c-19.9,20.2-39.8,40.3-59.9,60.3
		c-2.3,2.3-2.8,4.1-1.7,7.3c4.7,13.8-0.9,28.6-13.1,36c-12,7.2-27.4,5.3-37.3-4.5c-10.1-10.2-11.9-25.8-4.3-38.1
		c7.5-12.1,22-17.4,35.7-12.6c3,1,4.6,0.6,6.8-1.6c19.9-20.2,39.8-40.3,59.9-60.3c2.4-2.4,3.1-4.2,2-7.7c-4.1-12.6-1-23.9,8.9-32.6
		c9.5-8.3,20.6-10,32.1-4.9C243.4,8.2,249.2,17.9,249.7,28.4z"/>
	<path class="st1" d="M134.9,177.2c11.3,18.8,22.3,37.2,33.3,55.6c-23.5,17.5-66.8,22.4-97.7,7.8c0.3-0.7,0.5-1.5,0.8-2.2
		c7.8-19.2,15.7-38.4,23.7-58C108.6,185.3,121.8,184.6,134.9,177.2z"/>
	<path class="st2" d="M80.5,107.5c-8.4,8.7-12.4,19.2-13,31.3c-21.6,0-43,0-65.1,0c0.5-30.1,11-55.9,31.4-77.1
		C49.4,77,64.8,92.1,80.5,107.5z"/>
	<path class="st3" d="M189.7,216c-15.3-15.1-30.5-30.1-46.2-45.5c8-8.6,12.4-19.1,12.9-31.2c21.7,0,43.1,0,64.4,0
		C224.1,161.8,207.5,202.1,189.7,216z"/>
	<path class="st4" d="M55.4,44.6C72.6,34,91.2,28.9,111.6,28.6c0,21.8,0,43.3,0,64.6c-7.5,2.1-15.1,4.3-23.2,6.6
		C77.7,81.9,66.6,63.4,55.4,44.6z"/>
	<path class="st5" d="M116.5,28.8c21.3,1.1,40.2,7.4,58.5,20c-7.3,7-14.2,13.5-21,20.1c-7.3,7.1-14.8,14-21.4,21.7
		c-4.8,5.7-9.7,6.4-16.1,3.5C116.5,72.5,116.5,50.9,116.5,28.8z"/>
	<path class="st5" d="M201.8,75.9c12.2,17.8,18.4,36.9,19.6,58.5c-2,0-3.7,0-5.5,0c-18,0-35.9,0.1-53.9-0.1c-2.1,0-5.8-0.9-6.1-2
		c-0.8-3.6-3.3-7.3,1-11.3c10.7-10,20.8-20.6,31.1-31C192.6,85.5,197.1,80.8,201.8,75.9z"/>
	<path class="st6" d="M67.5,143.7c1.4,5,2.6,9.6,4,14.7c-18.3,11.1-36.8,22.3-55.5,33.7c-8.5-15.2-12.6-31.1-13.5-48.4
		C24.2,143.7,45.8,143.7,67.5,143.7z"/>
	<path class="st7" d="M84.5,174.2c1.6,1.1,3.8,2.5,6.5,4.4c-8.2,20.1-16.4,40.1-25.1,61.5c-9.8-6.6-19.1-12.8-28.9-19.3
		C53.4,204.6,68.8,189.5,84.5,174.2z"/>
	<path class="st8" d="M17.6,196.1c19.3-11.7,37.6-22.8,56.1-34c2.2,2.9,4.4,5.6,6.5,8.3c-15.5,15.1-30.9,30.2-46.9,45.9
		C28.5,210.2,23.2,203.4,17.6,196.1z"/>
	<path class="st9" d="M172.3,231.3c-11.5-19.3-22.7-37.9-33.9-56.7c3.4,0,36.6,32,47.8,45.7C181.7,223.9,177.2,227.5,172.3,231.3z"
		/>
	<path class="st10" d="M38.3,57.1c4-3.1,8.3-6.6,13.3-10.5C63.1,65.8,74.2,84.5,85.9,104C69.6,88,54.1,72.7,38.3,57.1z"/>
</g>
</svg>
